<svg width="620" height="210" viewBox="0 0 620 210" fill="none" xmlns="http://www.w3.org/2000/svg">
  <defs>
    <filter id="glow-light" x="0" y="0" width="220" height="210" filterUnits="userSpaceOnUse" color-interpolation-filters="sRGB">
      <feDropShadow dx="0" dy="10" stdDeviation="10" flood-color="#1F2B36" flood-opacity="0.08"/>
    </filter>
  </defs>

  <g filter="url(#glow-light)">
    <path
      d="M103 12L171 58V136L103 182L35 136V58L103 12Z"
      stroke="#495662"
      stroke-width="4.5"
      stroke-linejoin="round"
    />
    <path
      d="M103 24L160 63V131L103 170L46 131V63L103 24Z"
      stroke="#80909F"
      stroke-width="3"
      stroke-linejoin="round"
    />

    <rect x="52" y="48" width="58" height="5" rx="2.5" fill="#647383"/>
    <rect x="52" y="56" width="12" height="3" rx="1.5" fill="#758392"/>
    <rect x="67" y="56" width="12" height="3" rx="1.5" fill="#758392"/>
    <rect x="82" y="56" width="12" height="3" rx="1.5" fill="#758392"/>
    <rect x="97" y="56" width="12" height="3" rx="1.5" fill="#758392"/>

    <rect x="56" y="70" width="24" height="24" rx="5.5" stroke="#6E7C89" stroke-width="3"/>
    <rect x="86" y="70" width="24" height="24" rx="5.5" stroke="#6E7C89" stroke-width="3"/>
    <rect x="56" y="100" width="24" height="24" rx="5.5" stroke="#6E7C89" stroke-width="3"/>
    <rect x="86" y="100" width="24" height="24" rx="5.5" stroke="#6E7C89" stroke-width="3"/>

    <path
      d="M84 126C100 132 115 132 129 125C142 118 152 107 158 94"
      stroke="#2E3C48"
      stroke-width="4.5"
      stroke-linecap="round"
    />
    <path
      d="M109 100L152 56H128"
      stroke="#2E3C48"
      stroke-width="5"
      stroke-linecap="round"
      stroke-linejoin="round"
    />
    <path
      d="M152 56V79"
      stroke="#2E3C48"
      stroke-width="5"
      stroke-linecap="round"
    />
  </g>

  <text
    x="230"
    y="102"
    fill="#21303B"
    font-family="Trebuchet MS, Noto Sans, sans-serif"
    font-size="76"
    font-weight="300"
    letter-spacing="-0.03em"
  >
    BobOS
  </text>
  <text
    x="232"
    y="138"
    fill="#586875"
    font-family="Trebuchet MS, Noto Sans, sans-serif"
    font-size="28"
    font-weight="400"
    letter-spacing="0"
  >
    Dashboard &amp; Nieuwsfeed
  </text>
</svg>
